# xmcd
#
# Track frame offsets:
#	150
#	62057
#	99932
#	154505
#	219079
#	244992
#	294820
#
# Disc length: 4334 seconds
#
# Revision: 4
# Processed by: cddbd v1.5.2PL0 Copyright (c) Steve Scherf et al.
# Submitted via: audiograbber 1.83.01
#
DISCID=5210ec07
DTITLE=Erin Hunter - In Die Wildnis CD2
DYEAR=2010
DGENRE=Hörbuch
TTITLE0=In die Wildnis 0201
TTITLE1=In die Wildnis 0202
TTITLE2=In die Wildnis 0203
TTITLE3=In die Wildnis 0204
TTITLE4=In die Wildnis 0205
TTITLE5=In die Wildnis 0206
TTITLE6=In die Wildnis 0207
EXTD=Warrior Cats 1-1\ngelesen von Ulrike Krumbiegel
EXTT0=
EXTT1=
EXTT2=
EXTT3=
EXTT4=
EXTT5=
EXTT6=
PLAYORDER=
